<?xml version="1.0" encoding="utf-8"?>
<!-- Generator: Adobe Illustrator 21.1.0, SVG Export Plug-In . SVG Version: 6.00 Build 0)  -->
<svg version="1.1" id="Слой_1" xmlns="http://www.w3.org/2000/svg" xmlns:xlink="http://www.w3.org/1999/xlink" x="0px" y="0px"
	 width="20px" height="28px" viewBox="0 0 20 28" style="enable-background:new 0 0 20 28;" xml:space="preserve">
<g id="non_x5F_chk">
	<path style="fill:#494949;" d="M13,14H1c-0.552,0-1-0.448-1-1V1c0-0.552,0.448-1,1-1h12c0.552,0,1,0.448,1,1v12
		C14,13.552,13.552,14,13,14z"/>
	<path style="fill:#E0E0E0;" d="M12,13H2c-0.552,0-1-0.448-1-1V2c0-0.552,0.448-1,1-1h10c0.552,0,1,0.448,1,1v10
		C13,12.552,12.552,13,12,13z"/>
</g>
<g id="chk_1_">
	<path style="fill:#494949;" d="M13,28.001H1c-0.552,0-1-0.448-1-1v-12c0-0.552,0.448-1,1-1h12c0.552,0,1,0.448,1,1v12
		C14,27.553,13.552,28.001,13,28.001z"/>
	<path style="fill:#E0E0E0;" d="M12,27.001H2c-0.552,0-1-0.448-1-1v-10c0-0.552,0.448-1,1-1h10c0.552,0,1,0.448,1,1v10
		C13,26.553,12.552,27.001,12,27.001z"/>
	<path style="fill:#BC1313;" d="M9,24.001H5c-0.552,0-1-0.448-1-1v-4c0-0.552,0.448-1,1-1h4c0.552,0,1,0.448,1,1v4
		C10,23.553,9.552,24.001,9,24.001z"/>
</g>
</svg>
