<?xml version="1.0" encoding="utf-8"?>
<!-- Generator: Adobe Illustrator 21.1.0, SVG Export Plug-In . SVG Version: 6.00 Build 0)  -->
<svg version="1.1" id="Слой_1" xmlns="http://www.w3.org/2000/svg" xmlns:xlink="http://www.w3.org/1999/xlink" x="0px" y="0px"
	 width="20px" height="28px" viewBox="0 0 20 28" style="enable-background:new 0 0 20 28;" xml:space="preserve">
<g id="non_x5F_chk">
	<path style="fill:#494949;" d="M7,14L7,14c-3.866,0-7-3.134-7-7v0c0-3.866,3.134-7,7-7h0c3.866,0,7,3.134,7,7v0
		C14,10.866,10.866,14,7,14z"/>
	<path style="fill:#E0E0E0;" d="M7,13L7,13c-3.314,0-6-2.686-6-6v0c0-3.314,2.686-6,6-6h0c3.314,0,6,2.686,6,6v0
		C13,10.314,10.314,13,7,13z"/>
</g>
<g id="chk_1_">
	<path style="fill:#494949;" d="M7,28.001L7,28.001c-3.866,0-7-3.134-7-7v0c0-3.866,3.134-7,7-7h0c3.866,0,7,3.134,7,7v0
		C14,24.867,10.866,28.001,7,28.001z"/>
	<path style="fill:#E0E0E0;" d="M7,27.001L7,27.001c-3.314,0-6-2.686-6-6v0c0-3.314,2.686-6,6-6h0c3.314,0,6,2.686,6,6v0
		C13,24.315,10.314,27.001,7,27.001z"/>
	<path style="fill:#BC1313;" d="M7,24.001L7,24.001c-1.657,0-3-1.343-3-3v0c0-1.657,1.343-3,3-3h0c1.657,0,3,1.343,3,3v0
		C10,22.658,8.657,24.001,7,24.001z"/>
</g>
</svg>
